<?xml version="1.0" standalone="no"?>
<!DOCTYPE svg PUBLIC "-//W3C//DTD SVG 20010904//EN"
 "http://www.w3.org/TR/2001/REC-SVG-20010904/DTD/svg10.dtd">
<svg version="1.0" xmlns="http://www.w3.org/2000/svg"
 width="64.000000pt" height="64.000000pt" viewBox="0 0 64.000000 64.000000"
 preserveAspectRatio="xMidYMid meet">

<g transform="translate(0.000000,64.000000) scale(0.100000,-0.100000)"
fill="#000000" stroke="none">
<path d="M225 603 c-11 -20 -54 -64 -95 -98 -97 -80 -130 -139 -130 -234 0
-83 23 -134 82 -186 68 -60 133 -80 253 -79 113 0 164 17 230 75 53 47 75 99
75 181 0 116 -53 198 -172 265 -31 18 -65 45 -77 61 -16 23 -33 32 -77 41 -32
6 -60 11 -63 11 -3 0 -15 -17 -26 -37z m111 -44 c3 -5 0 -9 -5 -9 -20 0 -11
-37 14 -64 25 -27 55 -35 55 -14 0 7 -12 26 -27 42 l-28 31 30 -26 c17 -15 48
-36 70 -47 110 -56 171 -184 131 -277 l-13 -30 -6 50 c-5 50 -25 105 -36 105
-3 0 -5 -39 -3 -87 3 -102 -7 -130 -56 -150 -32 -13 -33 -13 -27 8 21 66 -18
235 -63 271 -14 11 -15 10 -7 -7 17 -41 17 -144 0 -219 l-16 -76 -49 0 c-45 0
-50 2 -56 26 -4 15 -4 72 -1 127 5 72 3 97 -4 90 -16 -16 -39 -120 -39 -175 0
-27 -3 -48 -6 -48 -3 0 -19 8 -36 18 l-30 17 5 75 c3 41 14 99 26 129 11 30
19 56 18 58 -2 1 -17 -12 -34 -30 -36 -38 -73 -103 -74 -132 0 -17 -2 -17 -10
5 -15 36 -3 106 26 156 15 26 52 62 89 89 36 25 73 61 84 79 16 28 25 33 46
29 15 -3 29 -9 32 -14z"/>
<path d="M254 505 c-15 -23 -12 -45 6 -45 12 0 41 56 33 64 -12 11 -22 6 -39
-19z"/>
</g>
</svg>
