<?xml version="1.0" standalone="no"?>
<!DOCTYPE svg PUBLIC "-//W3C//DTD SVG 20010904//EN"
 "http://www.w3.org/TR/2001/REC-SVG-20010904/DTD/svg10.dtd">
<svg version="1.0" xmlns="http://www.w3.org/2000/svg"
 width="64.000000pt" height="64.000000pt" viewBox="0 0 64.000000 64.000000"
 preserveAspectRatio="xMidYMid meet">

<g transform="translate(0.000000,64.000000) scale(0.100000,-0.100000)"
fill="#000000" stroke="none">
<path d="M170 621 c-207 -74 -224 -365 -25 -457 83 -39 200 -28 258 23 17 16
23 11 120 -85 57 -57 106 -99 110 -95 4 4 -38 53 -95 110 -96 97 -101 103 -85
120 29 32 47 91 47 150 0 175 -166 292 -330 234z m214 -51 c145 -99 118 -326
-46 -394 -90 -38 -212 -2 -267 77 -35 53 -43 77 -43 137 2 183 204 286 356
180z"/>
</g>
</svg>
