<?xml version="1.0" standalone="no"?>
<!DOCTYPE svg PUBLIC "-//W3C//DTD SVG 20010904//EN"
 "http://www.w3.org/TR/2001/REC-SVG-20010904/DTD/svg10.dtd">
<svg version="1.0" xmlns="http://www.w3.org/2000/svg"
 width="64.000000pt" height="64.000000pt" viewBox="0 0 64.000000 64.000000"
 preserveAspectRatio="xMidYMid meet">

<g transform="translate(0.000000,64.000000) scale(0.100000,-0.100000)"
fill="#000000" stroke="none">
<path d="M247 630 c-92 -24 -179 -97 -219 -185 -31 -70 -31 -180 1 -252 28
-62 102 -136 169 -166 66 -30 179 -29 247 1 65 30 138 102 166 166 32 71 32
181 0 252 -27 63 -101 136 -163 164 -54 24 -148 33 -201 20z m170 -43 c110
-41 183 -147 183 -267 0 -126 -82 -238 -197 -271 -56 -15 -158 -7 -208 16 -50
25 -105 80 -130 130 -23 50 -31 152 -16 208 33 115 146 198 270 196 36 0 80
-6 98 -12z"/>
<path d="M150 415 l0 -75 75 0 75 0 0 75 0 75 -75 0 -75 0 0 -75z m115 0 l0
-40 -40 0 -40 0 -3 43 -3 43 43 -3 43 -3 0 -40z"/>
<path d="M340 415 l0 -75 75 0 75 0 0 75 0 75 -75 0 -75 0 0 -75z m118 3 c-3
-43 -3 -43 -43 -43 -36 0 -40 2 -43 28 -6 46 4 57 48 57 l41 0 -3 -42z"/>
<path d="M150 225 l0 -75 75 0 75 0 0 75 0 75 -75 0 -75 0 0 -75z m115 0 c0
-40 0 -40 -42 -43 l-43 -3 0 39 c0 48 5 54 50 50 34 -3 35 -4 35 -43z"/>
<path d="M340 225 l0 -75 75 0 75 0 0 75 0 75 -75 0 -75 0 0 -75z m118 -3 l3
-43 -43 3 c-39 3 -43 6 -46 31 -6 47 4 59 45 55 37 -3 38 -4 41 -46z"/>
</g>
</svg>
