<?xml version="1.0" standalone="no"?>
<!DOCTYPE svg PUBLIC "-//W3C//DTD SVG 20010904//EN"
 "http://www.w3.org/TR/2001/REC-SVG-20010904/DTD/svg10.dtd">
<svg version="1.0" xmlns="http://www.w3.org/2000/svg"
 width="64.000000pt" height="64.000000pt" viewBox="0 0 64.000000 64.000000"
 preserveAspectRatio="xMidYMid meet">

<g transform="translate(0.000000,64.000000) scale(0.100000,-0.100000)"
fill="#000000" stroke="none">
<path d="M223 591 c-105 -53 -106 -53 -51 -108 l46 -46 35 16 c38 18 97 22
113 8 5 -4 21 -11 35 -14 21 -5 33 1 68 37 24 25 40 49 36 55 -9 15 -100 61
-122 61 -10 0 -27 7 -37 15 -27 21 -41 18 -123 -24z m127 -13 c13 -25 13 -29
-3 -45 -16 -16 -20 -16 -45 -3 -31 18 -39 44 -21 66 18 22 51 13 69 -18z m120
-31 c19 -13 18 -15 -20 -52 -22 -22 -40 -35 -40 -29 0 5 6 16 13 23 10 10 6
18 -21 39 -18 15 -32 35 -32 44 0 16 3 16 40 3 23 -8 49 -20 60 -28z m-213 3
c8 -22 20 -32 42 -36 37 -8 51 -24 21 -24 -11 0 -37 -7 -57 -15 -35 -15 -36
-14 -73 17 -21 18 -39 36 -39 39 -1 6 77 49 89 49 3 0 11 -14 17 -30z m152
-46 c2 -2 -4 -11 -13 -20 -19 -19 -21 -18 -31 14 -6 22 -5 23 17 17 12 -4 25
-9 27 -11z"/>
<path d="M86 488 c-8 -13 -22 -41 -31 -63 -10 -22 -23 -47 -31 -56 -15 -17
-13 -97 4 -108 5 -3 20 -29 32 -58 35 -81 43 -84 97 -31 l45 45 -16 31 c-20
40 -20 104 0 144 16 30 16 31 -27 74 -24 24 -47 44 -51 44 -4 0 -14 -10 -22
-22z m60 -33 l35 -35 -18 -50 c-17 -48 -17 -52 0 -101 l18 -51 -36 -35 c-40
-39 -43 -38 -71 24 -20 45 -18 50 9 24 39 -35 86 1 51 40 -9 10 -13 22 -10 28
9 14 -19 66 -45 85 l-21 15 22 45 c12 25 24 46 26 46 3 0 20 -16 40 -35z m-59
-105 c3 -11 9 -20 14 -20 18 0 8 -32 -11 -37 -11 -3 -20 -10 -20 -15 0 -5 -8
-8 -17 -6 -17 3 -28 56 -18 86 7 20 46 14 52 -8z m33 -95 c21 -25 1 -31 -23
-7 -17 18 -18 22 -5 22 8 0 21 -7 28 -15z"/>
<path d="M482 467 l-43 -43 16 -37 c19 -46 19 -88 0 -134 l-16 -37 45 -44 c25
-26 49 -42 55 -38 6 4 28 40 47 79 42 83 56 187 25 187 -9 1 -26 22 -41 53
-14 28 -30 53 -35 54 -6 2 -30 -16 -53 -40z m91 -63 c2 -22 -3 -29 -22 -34
-38 -9 -46 -31 -30 -81 12 -37 18 -44 37 -41 20 2 22 -1 17 -20 -4 -13 -15
-35 -24 -50 l-17 -28 -37 38 -36 37 17 48 c16 44 16 50 0 94 l-17 48 36 37 37
38 19 -29 c10 -16 19 -42 20 -57z m32 -34 c-3 -5 -11 -10 -16 -10 -6 0 -7 5
-4 10 3 6 11 10 16 10 6 0 7 -4 4 -10z m5 -36 c0 -6 -3 -25 -6 -41 -5 -24 -11
-30 -34 -30 -23 0 -29 6 -34 30 -11 52 -9 55 34 54 22 -1 40 -7 40 -13z"/>
<path d="M290 430 c0 -23 -10 -26 -28 -8 -10 10 -17 7 -34 -10 -17 -17 -20
-24 -10 -34 18 -18 15 -28 -8 -28 -16 0 -20 -7 -20 -30 0 -23 4 -30 20 -30 23
0 24 -4 10 -29 -13 -24 24 -61 42 -43 18 18 28 15 28 -8 0 -16 7 -20 30 -20
23 0 30 4 30 20 0 23 10 26 28 8 10 -10 17 -7 34 10 17 17 20 24 10 34 -18 18
-15 28 8 28 16 0 20 7 20 30 0 23 -4 30 -20 30 -23 0 -26 10 -8 28 10 10 7 17
-10 34 -17 17 -24 20 -34 10 -18 -18 -28 -15 -28 8 0 16 -7 20 -30 20 -23 0
-30 -4 -30 -20z m48 -20 c9 -16 19 -19 39 -14 24 6 25 5 19 -19 -5 -20 -1 -29
16 -41 l22 -16 -22 -16 c-17 -12 -21 -21 -16 -41 6 -24 5 -25 -19 -19 -20 5
-29 1 -41 -16 l-16 -22 -16 22 c-12 17 -21 21 -41 16 -24 -6 -25 -5 -19 19 5
20 1 29 -16 41 l-22 16 22 16 c17 12 21 21 16 41 -6 24 -5 25 19 19 20 -5 30
-2 39 14 7 11 15 20 18 20 3 0 11 -9 18 -20z"/>
<path d="M275 365 c-14 -13 -25 -33 -25 -45 0 -27 43 -70 70 -70 27 0 70 43
70 70 0 12 -11 32 -25 45 -13 14 -33 25 -45 25 -11 0 -32 -11 -45 -25z m88
-16 c5 -9 7 -28 3 -42 -7 -30 -49 -46 -75 -30 -20 13 -26 60 -10 79 16 19 69
14 82 -7z"/>
<path d="M300 334 c-11 -12 -10 -18 3 -32 16 -15 18 -15 34 0 13 14 14 20 3
32 -7 9 -16 16 -20 16 -4 0 -13 -7 -20 -16z m30 -14 c0 -5 -4 -10 -10 -10 -5
0 -10 5 -10 10 0 6 5 10 10 10 6 0 10 -4 10 -10z"/>
<path d="M170 155 c-51 -52 -48 -61 33 -95 29 -11 67 -29 85 -38 30 -15 34
-15 65 0 17 9 55 27 84 38 81 34 84 43 32 96 l-45 45 -37 -16 c-46 -19 -88
-19 -134 0 -19 8 -36 15 -37 15 -1 0 -22 -20 -46 -45z m93 10 l36 -15 -22 -42
c-12 -24 -23 -45 -24 -46 -3 -7 -67 18 -87 33 -19 15 -19 16 14 50 39 40 36
40 83 20z m191 -24 l38 -38 -44 -22 c-25 -11 -49 -21 -54 -21 -5 1 -19 21 -30
46 l-22 45 32 14 c17 7 33 14 36 14 3 1 23 -16 44 -38z m-107 -37 c20 -41 9
-69 -27 -69 -36 0 -47 28 -27 69 21 45 33 45 54 0z"/>
</g>
</svg>
