<?xml version="1.0" standalone="no"?>
<!DOCTYPE svg PUBLIC "-//W3C//DTD SVG 20010904//EN"
 "http://www.w3.org/TR/2001/REC-SVG-20010904/DTD/svg10.dtd">
<svg version="1.0" xmlns="http://www.w3.org/2000/svg"
 width="64.000000pt" height="64.000000pt" viewBox="0 0 64.000000 64.000000"
 preserveAspectRatio="xMidYMid meet">

<g transform="translate(0.000000,64.000000) scale(0.100000,-0.100000)"
fill="#000000" stroke="none">
<path d="M490 520 c0 -17 -7 -20 -53 -20 l-52 0 -130 -130 -130 -130 -52 0
-53 0 0 -45 0 -45 68 0 67 0 130 130 c120 121 132 130 167 130 34 0 38 -3 38
-26 l0 -25 45 32 c84 60 84 62 22 108 -62 47 -67 49 -67 21z m68 -38 l33 -28
-40 -32 c-30 -24 -41 -29 -41 -17 0 12 -12 15 -53 15 l-52 0 -130 -130 -130
-130 -52 0 -53 0 0 35 0 35 48 0 47 0 130 130 130 130 57 0 c32 0 58 4 58 10
0 16 13 11 48 -18z"/>
<path d="M20 455 l0 -45 48 0 c41 0 53 -5 77 -30 16 -16 33 -30 39 -30 5 0 -5
16 -24 35 -28 29 -41 35 -77 35 -42 0 -43 0 -43 35 l0 35 53 0 c49 0 56 -3 97
-45 24 -25 49 -45 54 -45 6 0 -12 23 -39 50 l-49 50 -68 0 -68 0 0 -45z"/>
<path d="M370 265 c30 -31 40 -35 86 -35 32 0 54 5 56 12 3 8 18 2 42 -17 l38
-29 -39 -32 c-27 -23 -39 -28 -41 -18 -3 10 -20 14 -63 14 -57 0 -62 2 -109
46 -61 57 -66 47 -8 -13 40 -41 45 -43 100 -43 56 0 58 -1 58 -26 l0 -25 28
20 c15 11 42 33 61 49 l35 29 -56 41 c-63 48 -68 50 -68 22 0 -17 -7 -20 -38
-20 -29 0 -45 7 -67 30 -16 17 -33 30 -39 30 -5 0 5 -16 24 -35z"/>
</g>
</svg>
